<mxfile host="app.diagrams.net" modified="2020-12-12T02:13:57.319Z" agent="5.0 (Windows NT 10.0; Win64; x64) AppleWebKit/537.36 (KHTML, like Gecko) Chrome/86.0.4240.198 Safari/537.36 OPR/72.0.3815.400" etag="bVwhX3xuHnOlixPcX_0R" version="14.0.1" type="github">
  <diagram id="BEwYd7-QW6IbJVN_QXZY" name="Page-1">
    <mxGraphModel dx="828" dy="483" grid="1" gridSize="10" guides="1" tooltips="1" connect="1" arrows="1" fold="1" page="1" pageScale="1" pageWidth="827" pageHeight="1169" math="0" shadow="0">
      <root>
        <mxCell id="0" />
        <mxCell id="1" parent="0" />
        <mxCell id="CG_5utxhJjm5VIdd_XP0-2" value="" style="rounded=0;whiteSpace=wrap;html=1;" parent="1" vertex="1">
          <mxGeometry y="45" width="625" height="480" as="geometry" />
        </mxCell>
        <mxCell id="h5e7jg0KxWS-je9wN3GM-1" value="" style="rounded=0;whiteSpace=wrap;html=1;" parent="1" vertex="1">
          <mxGeometry x="30" y="120" width="210" height="250" as="geometry" />
        </mxCell>
        <mxCell id="h5e7jg0KxWS-je9wN3GM-6" style="edgeStyle=orthogonalEdgeStyle;rounded=0;orthogonalLoop=1;jettySize=auto;html=1;exitX=0.5;exitY=1;exitDx=0;exitDy=0;entryX=0.5;entryY=0;entryDx=0;entryDy=0;" parent="1" target="h5e7jg0KxWS-je9wN3GM-1" edge="1">
          <mxGeometry relative="1" as="geometry">
            <mxPoint x="290" y="270" as="targetPoint" />
            <mxPoint x="397" y="350" as="sourcePoint" />
            <Array as="points">
              <mxPoint x="397" y="370" />
              <mxPoint x="300" y="370" />
              <mxPoint x="300" y="80" />
              <mxPoint x="135" y="80" />
            </Array>
          </mxGeometry>
        </mxCell>
        <mxCell id="h5e7jg0KxWS-je9wN3GM-3" value="" style="shape=note;whiteSpace=wrap;html=1;backgroundOutline=1;darkOpacity=0.05;" parent="1" vertex="1">
          <mxGeometry x="160" y="340" width="80" height="100" as="geometry" />
        </mxCell>
        <mxCell id="h5e7jg0KxWS-je9wN3GM-4" value="" style="shape=note;whiteSpace=wrap;html=1;backgroundOutline=1;darkOpacity=0.05;" parent="1" vertex="1">
          <mxGeometry x="120" y="300" width="80" height="100" as="geometry" />
        </mxCell>
        <mxCell id="h5e7jg0KxWS-je9wN3GM-5" value="" style="shape=note;whiteSpace=wrap;html=1;backgroundOutline=1;darkOpacity=0.05;" parent="1" vertex="1">
          <mxGeometry x="80" y="260" width="80" height="100" as="geometry" />
        </mxCell>
        <mxCell id="CG_5utxhJjm5VIdd_XP0-4" style="edgeStyle=orthogonalEdgeStyle;rounded=0;orthogonalLoop=1;jettySize=auto;html=1;" parent="1" source="h5e7jg0KxWS-je9wN3GM-7" target="CG_5utxhJjm5VIdd_XP0-3" edge="1">
          <mxGeometry relative="1" as="geometry" />
        </mxCell>
        <mxCell id="h5e7jg0KxWS-je9wN3GM-7" value="" style="shape=note;whiteSpace=wrap;html=1;backgroundOutline=1;darkOpacity=0.05;" parent="1" vertex="1">
          <mxGeometry x="530" y="220" width="80" height="100" as="geometry" />
        </mxCell>
        <mxCell id="h5e7jg0KxWS-je9wN3GM-44" style="edgeStyle=orthogonalEdgeStyle;rounded=0;orthogonalLoop=1;jettySize=auto;html=1;" parent="1" source="h5e7jg0KxWS-je9wN3GM-9" target="h5e7jg0KxWS-je9wN3GM-7" edge="1">
          <mxGeometry relative="1" as="geometry">
            <Array as="points">
              <mxPoint x="399" y="90" />
              <mxPoint x="560" y="90" />
            </Array>
          </mxGeometry>
        </mxCell>
        <mxCell id="h5e7jg0KxWS-je9wN3GM-9" value="" style="strokeWidth=2;html=1;shape=mxgraph.flowchart.database;whiteSpace=wrap;" parent="1" vertex="1">
          <mxGeometry x="350" y="220" width="97" height="130" as="geometry" />
        </mxCell>
        <mxCell id="h5e7jg0KxWS-je9wN3GM-10" value="" style="shape=note;whiteSpace=wrap;html=1;backgroundOutline=1;darkOpacity=0.05;" parent="1" vertex="1">
          <mxGeometry x="40" y="220" width="80" height="100" as="geometry" />
        </mxCell>
        <mxCell id="CG_5utxhJjm5VIdd_XP0-7" style="edgeStyle=orthogonalEdgeStyle;rounded=0;orthogonalLoop=1;jettySize=auto;html=1;exitX=0.5;exitY=1;exitDx=0;exitDy=0;exitPerimeter=0;entryX=0.5;entryY=0;entryDx=0;entryDy=0;entryPerimeter=0;" parent="1" source="h5e7jg0KxWS-je9wN3GM-11" target="h5e7jg0KxWS-je9wN3GM-43" edge="1">
          <mxGeometry relative="1" as="geometry" />
        </mxCell>
        <mxCell id="h5e7jg0KxWS-je9wN3GM-11" value="" style="shape=note;whiteSpace=wrap;html=1;backgroundOutline=1;darkOpacity=0.05;" parent="1" vertex="1">
          <mxGeometry x="150" y="130" width="80" height="90" as="geometry" />
        </mxCell>
        <mxCell id="h5e7jg0KxWS-je9wN3GM-13" value="" style="whiteSpace=wrap;html=1;aspect=fixed;" parent="1" vertex="1">
          <mxGeometry x="120" y="460" width="50" height="50" as="geometry" />
        </mxCell>
        <mxCell id="h5e7jg0KxWS-je9wN3GM-22" value="" style="whiteSpace=wrap;html=1;aspect=fixed;" parent="1" vertex="1">
          <mxGeometry x="170" y="460" width="50" height="50" as="geometry" />
        </mxCell>
        <mxCell id="h5e7jg0KxWS-je9wN3GM-23" value="" style="whiteSpace=wrap;html=1;aspect=fixed;" parent="1" vertex="1">
          <mxGeometry x="220" y="460" width="50" height="50" as="geometry" />
        </mxCell>
        <mxCell id="h5e7jg0KxWS-je9wN3GM-24" value="" style="whiteSpace=wrap;html=1;aspect=fixed;" parent="1" vertex="1">
          <mxGeometry x="270" y="460" width="50" height="50" as="geometry" />
        </mxCell>
        <mxCell id="h5e7jg0KxWS-je9wN3GM-25" value="" style="whiteSpace=wrap;html=1;aspect=fixed;" parent="1" vertex="1">
          <mxGeometry x="320" y="460" width="50" height="50" as="geometry" />
        </mxCell>
        <mxCell id="h5e7jg0KxWS-je9wN3GM-26" value="" style="whiteSpace=wrap;html=1;aspect=fixed;" parent="1" vertex="1">
          <mxGeometry x="370" y="460" width="50" height="50" as="geometry" />
        </mxCell>
        <mxCell id="h5e7jg0KxWS-je9wN3GM-27" value="" style="whiteSpace=wrap;html=1;aspect=fixed;" parent="1" vertex="1">
          <mxGeometry x="420" y="460" width="50" height="50" as="geometry" />
        </mxCell>
        <mxCell id="h5e7jg0KxWS-je9wN3GM-28" value="" style="whiteSpace=wrap;html=1;aspect=fixed;" parent="1" vertex="1">
          <mxGeometry x="470" y="460" width="50" height="50" as="geometry" />
        </mxCell>
        <mxCell id="CG_5utxhJjm5VIdd_XP0-9" style="edgeStyle=orthogonalEdgeStyle;rounded=0;orthogonalLoop=1;jettySize=auto;html=1;exitX=0.5;exitY=1;exitDx=0;exitDy=0;exitPerimeter=0;" parent="1" source="wUSRuZ4fPiBrACIo5Nu0-5" target="h5e7jg0KxWS-je9wN3GM-10" edge="1">
          <mxGeometry relative="1" as="geometry" />
        </mxCell>
        <mxCell id="h5e7jg0KxWS-je9wN3GM-43" value="" style="shape=note;whiteSpace=wrap;html=1;backgroundOutline=1;darkOpacity=0.05;" parent="1" vertex="1">
          <mxGeometry x="5" y="180" width="80" height="100" as="geometry" />
        </mxCell>
        <mxCell id="h5e7jg0KxWS-je9wN3GM-45" value="DATABASE" style="text;html=1;strokeColor=none;fillColor=none;align=center;verticalAlign=middle;whiteSpace=wrap;rounded=0;" parent="1" vertex="1">
          <mxGeometry x="363.5" y="295" width="70" height="20" as="geometry" />
        </mxCell>
        <mxCell id="CG_5utxhJjm5VIdd_XP0-3" value="registro de transacciones:ldf" style="text;html=1;strokeColor=none;fillColor=none;align=center;verticalAlign=middle;whiteSpace=wrap;rounded=0;" parent="1" vertex="1">
          <mxGeometry x="539" y="350" width="71" height="20" as="geometry" />
        </mxCell>
        <mxCell id="CG_5utxhJjm5VIdd_XP0-5" value="Archivo primario de datos: .mdf" style="text;html=1;strokeColor=none;fillColor=none;align=center;verticalAlign=middle;whiteSpace=wrap;rounded=0;" parent="1" vertex="1">
          <mxGeometry x="155" y="180" width="70" height="10" as="geometry" />
        </mxCell>
        <mxCell id="CG_5utxhJjm5VIdd_XP0-8" value="Archivo sucundarios de datos: .ndf" style="text;html=1;strokeColor=none;fillColor=none;align=center;verticalAlign=middle;whiteSpace=wrap;rounded=0;" parent="1" vertex="1">
          <mxGeometry x="13.5" y="235" width="63" height="20" as="geometry" />
        </mxCell>
        <mxCell id="CG_5utxhJjm5VIdd_XP0-10" value="1" style="text;html=1;strokeColor=none;fillColor=none;align=center;verticalAlign=middle;whiteSpace=wrap;rounded=0;" parent="1" vertex="1">
          <mxGeometry x="125" y="475" width="40" height="20" as="geometry" />
        </mxCell>
        <mxCell id="CG_5utxhJjm5VIdd_XP0-11" value="1" style="text;html=1;strokeColor=none;fillColor=none;align=center;verticalAlign=middle;whiteSpace=wrap;rounded=0;" parent="1" vertex="1">
          <mxGeometry x="225" y="475" width="40" height="20" as="geometry" />
        </mxCell>
        <mxCell id="CG_5utxhJjm5VIdd_XP0-12" value="1" style="text;html=1;strokeColor=none;fillColor=none;align=center;verticalAlign=middle;whiteSpace=wrap;rounded=0;" parent="1" vertex="1">
          <mxGeometry x="375" y="475" width="40" height="20" as="geometry" />
        </mxCell>
        <mxCell id="CG_5utxhJjm5VIdd_XP0-13" value="1" style="text;html=1;strokeColor=none;fillColor=none;align=center;verticalAlign=middle;whiteSpace=wrap;rounded=0;" parent="1" vertex="1">
          <mxGeometry x="425" y="475" width="40" height="20" as="geometry" />
        </mxCell>
        <mxCell id="CG_5utxhJjm5VIdd_XP0-14" value="0" style="text;html=1;strokeColor=none;fillColor=none;align=center;verticalAlign=middle;whiteSpace=wrap;rounded=0;" parent="1" vertex="1">
          <mxGeometry x="175" y="475" width="40" height="20" as="geometry" />
        </mxCell>
        <mxCell id="CG_5utxhJjm5VIdd_XP0-15" value="0" style="text;html=1;strokeColor=none;fillColor=none;align=center;verticalAlign=middle;whiteSpace=wrap;rounded=0;" parent="1" vertex="1">
          <mxGeometry x="275" y="475" width="40" height="20" as="geometry" />
        </mxCell>
        <mxCell id="CG_5utxhJjm5VIdd_XP0-16" value="0" style="text;html=1;strokeColor=none;fillColor=none;align=center;verticalAlign=middle;whiteSpace=wrap;rounded=0;" parent="1" vertex="1">
          <mxGeometry x="323.5" y="475" width="40" height="20" as="geometry" />
        </mxCell>
        <mxCell id="CG_5utxhJjm5VIdd_XP0-17" value="0" style="text;html=1;strokeColor=none;fillColor=none;align=center;verticalAlign=middle;whiteSpace=wrap;rounded=0;" parent="1" vertex="1">
          <mxGeometry x="475" y="475" width="40" height="20" as="geometry" />
        </mxCell>
        <mxCell id="CG_5utxhJjm5VIdd_XP0-18" value="pagina de archivos de 8kB" style="text;html=1;strokeColor=none;fillColor=none;align=center;verticalAlign=middle;whiteSpace=wrap;rounded=0;" parent="1" vertex="1">
          <mxGeometry x="270" y="410" width="100" height="50" as="geometry" />
        </mxCell>
        <mxCell id="wUSRuZ4fPiBrACIo5Nu0-1" value=".ldf" style="text;html=1;strokeColor=none;fillColor=none;align=center;verticalAlign=middle;whiteSpace=wrap;rounded=0;" vertex="1" parent="1">
          <mxGeometry x="550" y="260" width="40" height="20" as="geometry" />
        </mxCell>
        <mxCell id="wUSRuZ4fPiBrACIo5Nu0-2" value=".ndf" style="text;html=1;strokeColor=none;fillColor=none;align=center;verticalAlign=middle;whiteSpace=wrap;rounded=0;" vertex="1" parent="1">
          <mxGeometry x="100" y="320" width="40" height="20" as="geometry" />
        </mxCell>
        <mxCell id="wUSRuZ4fPiBrACIo5Nu0-3" value=".ndf" style="text;html=1;strokeColor=none;fillColor=none;align=center;verticalAlign=middle;whiteSpace=wrap;rounded=0;" vertex="1" parent="1">
          <mxGeometry x="140" y="370" width="40" height="20" as="geometry" />
        </mxCell>
        <mxCell id="wUSRuZ4fPiBrACIo5Nu0-4" value=".ndf" style="text;html=1;strokeColor=none;fillColor=none;align=center;verticalAlign=middle;whiteSpace=wrap;rounded=0;" vertex="1" parent="1">
          <mxGeometry x="185" y="410" width="40" height="20" as="geometry" />
        </mxCell>
        <mxCell id="wUSRuZ4fPiBrACIo5Nu0-5" value=".ndf" style="text;html=1;strokeColor=none;fillColor=none;align=center;verticalAlign=middle;whiteSpace=wrap;rounded=0;" vertex="1" parent="1">
          <mxGeometry x="76.5" y="280" width="40" height="20" as="geometry" />
        </mxCell>
        <mxCell id="wUSRuZ4fPiBrACIo5Nu0-6" style="edgeStyle=orthogonalEdgeStyle;rounded=0;orthogonalLoop=1;jettySize=auto;html=1;exitX=0.5;exitY=1;exitDx=0;exitDy=0;exitPerimeter=0;" edge="1" parent="1" source="h5e7jg0KxWS-je9wN3GM-43" target="wUSRuZ4fPiBrACIo5Nu0-5">
          <mxGeometry relative="1" as="geometry">
            <mxPoint x="45" y="280" as="sourcePoint" />
            <mxPoint x="80" y="320" as="targetPoint" />
          </mxGeometry>
        </mxCell>
      </root>
    </mxGraphModel>
  </diagram>
</mxfile>
